# Blender 3.6.1
# www.blender.org
mtllib AttackSelection.mtl
o Plane
v 0.758901 13.953168 5.216006
v 0.758901 13.938680 5.234381
v 0.802321 13.956555 5.288869
v 0.802321 14.010324 5.220675
v -0.802321 13.956555 5.288869
v -0.758901 13.938680 5.234381
v -0.758901 13.953168 5.216006
v -0.802321 14.010324 5.220675
v 0.758901 13.938680 -5.234383
v 0.758901 13.953168 -5.216008
v 0.802321 14.010324 -5.220677
v 0.802321 13.956555 -5.288872
v 0.758901 1.418156 -0.016703
v 0.802321 1.369389 -0.043421
v 0.802321 1.369389 0.043420
v 0.758901 1.418156 0.016702
v 0.758901 10.173059 0.035076
v 0.802321 10.232896 0.043420
v 0.802321 10.232896 -0.043421
v 0.758901 10.173059 -0.035078
v -0.802321 10.232896 -0.043421
v -0.802321 10.232896 0.043420
v -0.758901 10.173059 0.035076
v -0.758901 10.173059 -0.035077
v -0.758901 1.418156 0.016702
v -0.802321 1.369389 0.043420
v -0.802321 1.369389 -0.043421
v -0.758901 1.418156 -0.016703
v -0.758901 13.953168 -5.216008
v -0.758901 13.938680 -5.234383
v -0.802321 13.956555 -5.288872
v -0.802321 14.010324 -5.220677
v 0.802321 10.903672 -0.043421
v 0.802321 10.903672 0.043420
v 0.758901 10.950438 0.037634
v 0.758901 10.950438 -0.037636
v 0.802321 14.942599 5.955727
v 0.802321 14.826133 5.974487
v 0.758901 15.052285 6.112932
v 0.758901 15.070874 6.091598
v -0.802321 14.942599 5.955727
v -0.758901 15.070874 6.091598
v -0.758901 15.052285 6.112932
v -0.802321 14.826133 5.974487
v -0.802321 0.182621 0.043420
v -0.758901 0.000000 0.016300
v -0.758901 0.000000 -0.016301
v -0.802321 0.182621 -0.043421
v -0.802321 14.942599 -5.955729
v -0.802321 14.826135 -5.974489
v -0.758901 15.052285 -6.112933
v -0.758901 15.070874 -6.091599
v -0.802321 10.903672 0.043420
v -0.802321 10.903672 -0.043421
v -0.758901 10.950438 -0.037636
v -0.758901 10.950438 0.037634
v 0.802321 0.182621 -0.043421
v 0.758901 0.000000 -0.016301
v 0.758901 0.000000 0.016300
v 0.802321 0.182621 0.043420
v 0.802321 14.942599 -5.955729
v 0.758901 15.070874 -6.091599
v 0.758901 15.052285 -6.112933
v 0.802321 14.826135 -5.974489
v 0.548720 10.173059 0.035076
v 0.548720 10.173059 -0.035077
v 0.505299 10.125396 -0.043421
v 0.505299 10.125396 0.043420
v 0.548720 13.953168 5.216006
v 0.505299 13.852210 5.151306
v 0.548720 13.938680 5.234381
v -0.548720 13.953168 5.216006
v -0.548720 13.938680 5.234381
v -0.505299 13.852210 5.151306
v -0.548720 1.418156 0.016702
v -0.548720 1.418156 -0.016703
v -0.505299 1.595148 -0.043421
v -0.505299 1.595148 0.043420
v -0.548720 13.953168 -5.216008
v -0.505299 13.852212 -5.151308
v -0.548720 13.938680 -5.234383
v -0.548720 10.173059 0.035076
v -0.505299 10.125396 0.043420
v -0.505299 10.125396 -0.043421
v -0.548720 10.173059 -0.035078
v 0.548720 1.418156 -0.016703
v 0.548720 1.418156 0.016702
v 0.505299 1.595148 0.043420
v 0.505299 1.595148 -0.043421
v 0.548720 13.938680 -5.234383
v 0.505299 13.852212 -5.151308
v 0.548720 13.953168 -5.216008
vn 1.0000 -0.0000 -0.0000
vn -0.0000 0.3847 0.9231
vn -1.0000 -0.0000 -0.0000
vn -0.0000 0.3847 -0.9231
vn -0.0000 -0.8078 -0.5894
vn -0.0000 -0.8078 0.5894
vn -0.0000 -0.3754 0.9269
vn -0.0000 0.8267 0.5627
vn -0.0000 -0.3754 -0.9269
vn -0.0000 0.8267 -0.5627
vn 0.7400 -0.5282 -0.4164
vn -0.7400 -0.5282 -0.4164
vn 0.7400 -0.5282 0.4164
vn 0.7469 0.6650 -0.0000
vn 0.8094 -0.5873 -0.0000
vn -0.8094 -0.5873 -0.0000
vn -0.7469 0.6650 -0.0000
vn -0.7400 -0.5282 0.4164
vn 0.7328 0.6804 -0.0000
vn 0.9727 0.0661 0.2226
vn -0.9727 0.0661 0.2226
vn -0.9729 -0.2313 -0.0000
vn -0.9727 0.0661 -0.2226
vn -0.7328 0.6804 -0.0000
vn 0.9729 -0.2313 -0.0000
vn 0.9727 0.0661 -0.2226
vn 0.7392 -0.6734 -0.0000
vn 0.9397 -0.2685 -0.2117
vn -0.9397 -0.2685 -0.2117
vn -0.9712 0.2383 -0.0000
vn -0.9397 -0.2685 0.2117
vn -0.7392 -0.6734 -0.0000
vn 0.9712 0.2383 -0.0000
vn 0.9397 -0.2685 0.2117
vn 0.7071 -0.5712 0.4168
vn -0.7071 0.2720 -0.6527
vn -0.7071 -0.5712 -0.4168
vn 0.7071 0.2720 0.6527
vn 0.7071 -0.5712 -0.4168
vn -0.7071 0.2720 0.6527
vn -0.7071 -0.5712 0.4168
vn 0.7071 0.2720 -0.6527
vn -0.0000 -1.0000 -0.0000
vn -0.0000 -0.7853 -0.6192
vn 0.6348 0.6384 -0.4353
vn -0.7071 -0.2655 0.6554
vn -0.6348 0.6384 0.4353
vn 0.7071 -0.2655 -0.6554
vn 0.6348 0.6384 0.4353
vn -0.7071 -0.2655 -0.6554
vn -0.6348 0.6384 -0.4353
vn 0.7071 -0.2655 0.6554
vn -0.0000 1.0000 -0.0000
vn -0.0000 0.7539 -0.6569
vn -0.0000 0.7540 0.6569
vn -0.0000 -0.7853 0.6192
vt 0.009813 0.004907
vt 0.009553 0.004777
vt 0.992893 0.496447
vt 0.992697 0.496349
vt 0.996819 1.000000
vt 0.003181 1.000000
vt 0.000000 0.504070
vt 0.000000 0.503837
vt 0.000000 0.991693
vt 0.000000 0.991178
vt 0.996819 0.498410
vt 0.003181 0.001590
vt 0.000000 0.996660
vt 0.000000 0.503340
vt 0.000000 0.503340
vt 0.992697 1.000000
vt 0.992893 1.000000
vt 0.009553 1.000000
vt 0.009813 1.000000
vt 0.000000 0.496660
vt 0.000000 0.003340
vt 0.002659 0.001330
vt 0.002659 0.001330
vt 0.997341 0.498670
vt 0.000000 0.996930
vt 0.000000 0.996930
vt 0.000000 0.503070
vt 0.997341 1.000000
vt 0.002659 1.000000
vt 0.002659 1.000000
vt 0.006129 0.009501
vt 0.978859 0.495866
vt 0.006129 0.495866
vt 0.003181 0.001590
vt 0.000000 0.496930
vt 0.000000 0.496930
vt 0.000000 0.003070
vt 0.000000 0.503340
vt 0.000000 0.996660
vt 0.996819 1.000000
vt 0.006129 0.507199
vt 0.978859 0.993564
vt 0.006129 0.993564
vt 0.000000 0.003340
vt 0.000000 0.496660
vt 0.000000 0.991693
vt 0.000000 0.503837
vt 0.000000 0.504070
vt 0.000000 0.008822
vt 0.000000 0.008307
vt 0.000000 0.496163
vt 0.000000 0.495930
vt 0.997761 0.498880
vt 0.996819 0.498410
vt 1.000000 0.500000
vt 0.000000 0.495930
vt 0.996819 0.498410
vt 0.997761 0.498880
vt 0.988347 0.494173
vt 0.986350 0.493175
vt 0.998090 0.499045
vt 0.002517 0.500000
vt 0.000000 0.500000
vt 0.984099 0.492049
vt 0.986545 0.493273
vt 0.000000 0.496660
vt 0.002517 0.500000
vt 0.995430 0.500000
vt 0.975246 0.500000
vt 0.975247 0.500000
s 0
usemtl AttackSelcetion_mat
f 70/31/1 88/32/1 68/33/1
f 74/31/3 83/33/3 78/32/3
f 67/41/1 89/42/1 91/43/1
f 84/41/3 80/43/3 77/42/3
f 65/20/27 68/33/27 67/62/27 66/63/27
f 69/44/28 71/12/28 70/31/28
f 72/21/29 74/31/29 73/34/29
f 75/11/30 78/64/30 77/65/30 76/53/30
f 79/13/31 81/6/31 80/43/31
f 82/66/32 85/63/32 84/67/32 83/33/32
f 86/68/33 89/69/33 88/32/33 87/54/33
f 90/6/34 92/39/34 91/43/34
f 68/33/35 65/45/35 69/44/35 70/31/35
f 73/34/36 74/31/36 78/32/36 75/11/36
f 79/13/37 80/43/37 84/41/37 85/14/37
f 89/42/38 86/40/38 90/6/38 91/43/38
f 91/43/39 92/39/39 66/38/39 67/41/39
f 76/5/40 77/42/40 80/43/40 81/6/40
f 82/20/41 83/33/41 74/31/41 72/21/41
f 70/31/42 71/12/42 87/11/42 88/32/42
f 88/32/1 89/69/1 67/62/1 68/33/1
f 77/70/3 78/32/3 83/33/3 84/67/3
usemtl AttackSelcetion_mat.001
f 3/1/1 38/2/1 60/3/1 15/4/1
f 28/5/2 76/5/2 81/6/2 30/6/2
f 21/7/3 54/8/3 49/9/3 32/10/3
f 26/4/3 45/3/3 44/2/3 5/1/3
f 16/11/4 87/11/4 71/12/4 2/12/4
f 29/13/5 79/13/5 85/14/5 24/15/5
f 14/16/1 57/17/1 64/18/1 12/19/1
f 23/20/6 82/20/6 72/21/6 7/21/6
f 39/22/7 43/23/7 46/24/7 59/24/7
f 62/25/8 52/26/8 55/27/8 36/27/8
f 58/28/9 47/28/9 51/29/9 63/30/9
f 6/34/4 73/34/4 75/11/4 25/11/4
f 35/35/10 56/36/10 42/37/10 40/37/10
f 20/38/5 66/38/5 92/39/5 10/13/5
f 9/6/2 90/6/2 86/40/2 13/5/2
f 1/44/6 69/44/6 65/45/6 17/45/6
f 31/19/3 50/18/3 48/17/3 27/16/3
f 11/10/1 61/46/1 33/47/1 19/48/1
f 8/49/3 41/50/3 53/51/3 22/52/3
f 1/44/11 4/49/11 3/1/11 2/12/11
f 5/1/12 8/49/12 7/21/12 6/34/12
f 9/6/13 12/19/13 11/10/13 10/13/13
f 13/53/14 16/54/14 15/4/14 14/55/14
f 17/45/15 20/38/15 19/48/15 18/56/15
f 21/7/16 24/15/16 23/20/16 22/52/16
f 25/57/17 28/58/17 27/55/17 26/4/17
f 29/13/18 32/10/18 31/19/18 30/6/18
f 33/47/19 36/27/19 35/35/19 34/51/19
f 37/50/20 40/37/20 39/22/20 38/2/20
f 41/50/21 44/2/21 43/23/21 42/37/21
f 45/3/22 48/55/22 47/55/22 46/24/22
f 49/9/23 52/26/23 51/29/23 50/18/23
f 53/51/24 56/36/24 55/27/24 54/8/24
f 57/59/25 60/60/25 59/24/25 58/61/25
f 61/46/26 64/18/26 63/30/26 62/25/26
f 17/45/35 18/56/35 4/49/35 1/44/35
f 5/1/36 6/34/36 25/11/36 26/4/36
f 32/10/37 29/13/37 24/15/37 21/7/37
f 13/5/38 14/16/38 12/19/38 9/6/38
f 10/13/39 11/10/39 19/48/39 20/38/39
f 27/16/40 28/5/40 30/6/40 31/19/40
f 22/52/41 23/20/41 7/21/41 8/49/41
f 2/12/42 3/1/42 15/4/42 16/11/42
f 85/14/43 82/20/43 23/20/43 24/15/43
f 6/34/44 7/21/44 72/21/44 73/34/44
f 64/18/1 61/46/1 11/10/1 12/19/1
f 18/56/1 19/48/1 33/47/1 34/51/1
f 44/2/3 41/50/3 8/49/3 5/1/3
f 21/7/3 22/52/3 53/51/3 54/8/3
f 34/51/45 35/35/45 40/37/45 37/50/45
f 43/23/46 44/2/46 45/3/46 46/24/46
f 52/26/47 49/9/47 54/8/47 55/27/47
f 57/17/48 58/28/48 63/30/48 64/18/48
f 61/46/49 62/25/49 36/27/49 33/47/49
f 47/28/50 48/17/50 50/18/50 51/29/50
f 56/36/51 53/51/51 41/50/51 42/37/51
f 38/2/52 39/22/52 59/24/52 60/3/52
f 35/35/53 36/27/53 55/27/53 56/36/53
f 51/29/54 52/26/54 62/25/54 63/30/54
f 39/22/55 40/37/55 42/37/55 43/23/55
f 58/55/43 59/24/43 46/24/43 47/55/43
f 31/19/3 32/10/3 49/9/3 50/18/3
f 3/1/1 4/49/1 37/50/1 38/2/1
f 14/55/1 15/4/1 60/3/1 57/55/1
f 26/4/3 27/55/3 48/55/3 45/3/3
f 9/6/56 10/13/56 92/39/56 90/6/56
f 65/45/43 66/38/43 20/38/43 17/45/43
f 81/6/56 79/13/56 29/13/56 30/6/56
f 71/12/44 69/44/44 1/44/44 2/12/44
f 86/55/53 87/11/53 16/11/53 13/55/53
f 75/11/53 76/55/53 28/55/53 25/11/53
f 18/56/1 34/51/1 37/50/1 4/49/1
