# Blender v2.93.0 OBJ File: 'Schiff.blend'
# www.blender.org
mtllib ParameterUI_Ernergy.mtl
o Sphere
v 0.000000 0.176777 -0.176777
v 0.000000 0.095671 -0.230970
v 0.036612 0.230970 -0.088388
v 0.067650 0.176777 -0.163320
v 0.088388 0.095671 -0.213388
v 0.095671 -0.000000 -0.230970
v 0.067650 0.230970 -0.067649
v 0.125000 0.176777 -0.125000
v 0.163320 0.095671 -0.163320
v 0.176777 -0.000000 -0.176777
v 0.088388 0.230970 -0.036612
v 0.163320 0.176777 -0.067649
v 0.213388 0.095671 -0.088388
v 0.230970 -0.000000 -0.095671
v 0.095671 0.230970 0.000000
v 0.176777 0.176777 0.000000
v 0.230970 0.095671 0.000000
v 0.250000 -0.000000 0.000000
v 0.088388 0.230970 0.036612
v 0.163320 0.176777 0.067650
v 0.213388 0.095671 0.088388
v 0.230970 -0.000000 0.095671
v 0.067650 0.230970 0.067650
v 0.125000 0.176777 0.125000
v 0.163320 0.095671 0.163320
v 0.176777 -0.000000 0.176777
v 0.036612 0.230970 0.088388
v 0.067650 0.176777 0.163320
v 0.088388 0.095671 0.213388
v 0.095671 -0.000000 0.230970
v -0.000000 0.250000 0.000000
v -0.000000 0.230970 0.095671
v -0.000000 0.176777 0.176777
v -0.000000 0.095671 0.230970
v -0.000000 -0.000000 0.250000
v -0.036612 0.230970 0.088388
v -0.067650 0.176777 0.163320
v -0.088388 0.095671 0.213388
v -0.095671 -0.000000 0.230970
v -0.067650 0.230970 0.067649
v -0.125000 0.176777 0.125000
v -0.163320 0.095671 0.163320
v -0.176777 -0.000000 0.176777
v -0.088388 0.230970 0.036612
v -0.163320 0.176777 0.067649
v -0.213388 0.095671 0.088388
v -0.230970 -0.000000 0.095671
v -0.095671 0.230970 0.000000
v -0.176777 0.176777 0.000000
v -0.230970 0.095671 -0.000000
v -0.250000 -0.000000 -0.000000
v -0.088388 0.230970 -0.036612
v -0.163320 0.176777 -0.067649
v -0.213388 0.095671 -0.088388
v -0.230970 -0.000000 -0.095671
v -0.067650 0.230970 -0.067649
v -0.125000 0.176777 -0.125000
v -0.163320 0.095671 -0.163320
v -0.176777 -0.000000 -0.176777
v -0.036612 0.230970 -0.088388
v -0.067649 0.176777 -0.163320
v -0.088388 0.095671 -0.213388
v -0.095671 -0.000000 -0.230970
v 0.000000 0.230970 -0.095671
v 0.000000 -0.000000 -0.250000
vt 0.750000 0.625000
vt 0.687500 0.750000
vt 0.687500 0.625000
vt 0.750000 0.875000
vt 0.718750 1.000000
vt 0.687500 0.875000
vt 0.750000 0.500000
vt 0.687500 0.500000
vt 0.750000 0.750000
vt 0.625000 0.625000
vt 0.656250 1.000000
vt 0.625000 0.875000
vt 0.625000 0.500000
vt 0.625000 0.750000
vt 0.562500 0.500000
vt 0.562500 0.875000
vt 0.562500 0.750000
vt 0.562500 0.625000
vt 0.593750 1.000000
vt 0.500000 0.750000
vt 0.500000 0.625000
vt 0.531250 1.000000
vt 0.500000 0.875000
vt 0.500000 0.500000
vt 0.437500 0.750000
vt 0.437500 0.625000
vt 0.468750 1.000000
vt 0.437500 0.875000
vt 0.437500 0.500000
vt 0.406250 1.000000
vt 0.375000 0.875000
vt 0.375000 0.625000
vt 0.375000 0.500000
vt 0.375000 0.750000
vt 0.312500 0.500000
vt 0.312500 0.875000
vt 0.312500 0.750000
vt 0.312500 0.625000
vt 0.343750 1.000000
vt 0.250000 0.625000
vt 0.281250 1.000000
vt 0.250000 0.875000
vt 0.250000 0.500000
vt 0.250000 0.750000
vt 0.187500 0.750000
vt 0.187500 0.625000
vt 0.218750 1.000000
vt 0.187500 0.875000
vt 0.187500 0.500000
vt 0.125000 0.625000
vt 0.125000 0.500000
vt 0.125000 0.750000
vt 0.156250 1.000000
vt 0.125000 0.875000
vt 0.062500 0.500000
vt 0.062500 0.750000
vt 0.062500 0.625000
vt 0.093750 1.000000
vt 0.062500 0.875000
vt 0.000000 0.750000
vt 0.000000 0.625000
vt 0.031250 1.000000
vt 0.000000 0.875000
vt 0.000000 0.500000
vt 1.000000 0.625000
vt 0.937500 0.750000
vt 0.937500 0.625000
vt 1.000000 0.875000
vt 0.968750 1.000000
vt 0.937500 0.875000
vt 1.000000 0.500000
vt 0.937500 0.500000
vt 1.000000 0.750000
vt 0.875000 0.625000
vt 0.875000 0.500000
vt 0.875000 0.750000
vt 0.906250 1.000000
vt 0.875000 0.875000
vt 0.812500 0.875000
vt 0.812500 0.750000
vt 0.812500 0.625000
vt 0.843750 1.000000
vt 0.812500 0.500000
vt 0.781250 1.000000
vn 0.0000 0.3743 -0.9273
vn 0.2751 0.6952 -0.6641
vn 0.3548 0.3743 -0.8567
vn 0.0000 0.9152 -0.4031
vn 0.0000 1.0000 0.0000
vn 0.1542 0.9152 -0.3724
vn 0.0000 0.1951 -0.9808
vn 0.3753 0.1951 -0.9061
vn 0.0000 0.6952 -0.7188
vn 0.6557 0.3743 -0.6557
vn 0.2850 0.9152 -0.2850
vn 0.6935 0.1951 -0.6935
vn 0.5083 0.6952 -0.5083
vn 0.9061 0.1951 -0.3753
vn 0.3724 0.9152 -0.1542
vn 0.6641 0.6952 -0.2751
vn 0.8567 0.3743 -0.3548
vn 0.7188 0.6952 0.0000
vn 0.9273 0.3743 0.0000
vn 0.4031 0.9152 0.0000
vn 0.9808 0.1951 0.0000
vn 0.6641 0.6952 0.2751
vn 0.8567 0.3743 0.3548
vn 0.3724 0.9152 0.1542
vn 0.9061 0.1951 0.3753
vn 0.2850 0.9152 0.2850
vn 0.6557 0.3743 0.6557
vn 0.6935 0.1951 0.6935
vn 0.5083 0.6952 0.5083
vn 0.3753 0.1951 0.9061
vn 0.1542 0.9152 0.3724
vn 0.2751 0.6952 0.6641
vn 0.3548 0.3743 0.8567
vn 0.0000 0.3743 0.9273
vn 0.0000 0.9152 0.4031
vn 0.0000 0.1951 0.9808
vn 0.0000 0.6952 0.7188
vn -0.2751 0.6952 0.6641
vn -0.3548 0.3743 0.8567
vn -0.1542 0.9152 0.3724
vn -0.3753 0.1951 0.9061
vn -0.6557 0.3743 0.6557
vn -0.6935 0.1951 0.6935
vn -0.5083 0.6952 0.5083
vn -0.2850 0.9152 0.2850
vn -0.9061 0.1951 0.3753
vn -0.6641 0.6952 0.2751
vn -0.8567 0.3743 0.3548
vn -0.3724 0.9152 0.1542
vn -0.7188 0.6952 0.0000
vn -0.9273 0.3743 0.0000
vn -0.4031 0.9152 0.0000
vn -0.9808 0.1951 0.0000
vn -0.6641 0.6952 -0.2751
vn -0.8567 0.3743 -0.3548
vn -0.3724 0.9152 -0.1542
vn -0.9061 0.1951 -0.3753
vn -0.6557 0.3743 -0.6557
vn -0.6935 0.1951 -0.6935
vn -0.5083 0.6952 -0.5083
vn -0.2850 0.9152 -0.2850
vn -0.1542 0.9152 -0.3724
vn -0.2751 0.6952 -0.6641
vn -0.3548 0.3743 -0.8567
vn -0.3753 0.1951 -0.9061
usemtl Material
s 1
f 2/1/1 4/2/2 5/3/3
f 64/4/4 31/5/5 3/6/6
f 65/7/7 5/3/3 6/8/8
f 64/4/4 4/2/2 1/9/9
f 4/2/2 9/10/10 5/3/3
f 3/6/6 31/11/5 7/12/11
f 6/8/8 9/10/10 10/13/12
f 3/6/6 8/14/13 4/2/2
f 9/10/10 14/15/14 10/13/12
f 8/14/13 11/16/15 12/17/16
f 8/14/13 13/18/17 9/10/10
f 7/12/11 31/19/5 11/16/15
f 11/16/15 16/20/18 12/17/16
f 12/17/16 17/21/19 13/18/17
f 11/16/15 31/22/5 15/23/20
f 13/18/17 18/24/21 14/15/14
f 17/21/19 20/25/22 21/26/23
f 15/23/20 31/27/5 19/28/24
f 17/21/19 22/29/25 18/24/21
f 15/23/20 20/25/22 16/20/18
f 19/28/24 31/30/5 23/31/26
f 22/29/25 25/32/27 26/33/28
f 20/25/22 23/31/26 24/34/29
f 21/26/23 24/34/29 25/32/27
f 25/32/27 30/35/30 26/33/28
f 24/34/29 27/36/31 28/37/32
f 25/32/27 28/37/32 29/38/33
f 23/31/26 31/39/5 27/36/31
f 28/37/32 34/40/34 29/38/33
f 27/36/31 31/41/5 32/42/35
f 30/35/30 34/40/34 35/43/36
f 27/36/31 33/44/37 28/37/32
f 34/40/34 37/45/38 38/46/39
f 32/42/35 31/47/5 36/48/40
f 34/40/34 39/49/41 35/43/36
f 32/42/35 37/45/38 33/44/37
f 39/49/41 42/50/42 43/51/43
f 36/48/40 41/52/44 37/45/38
f 38/46/39 41/52/44 42/50/42
f 36/48/40 31/53/5 40/54/45
f 42/50/42 47/55/46 43/51/43
f 40/54/45 45/56/47 41/52/44
f 42/50/42 45/56/47 46/57/48
f 40/54/45 31/58/5 44/59/49
f 46/57/48 49/60/50 50/61/51
f 44/59/49 31/62/5 48/63/52
f 46/57/48 51/64/53 47/55/46
f 44/59/49 49/60/50 45/56/47
f 50/65/51 53/66/54 54/67/55
f 48/68/52 31/69/5 52/70/56
f 51/71/53 54/67/55 55/72/57
f 48/68/52 53/66/54 49/73/50
f 55/72/57 58/74/58 59/75/59
f 52/70/56 57/76/60 53/66/54
f 54/67/55 57/76/60 58/74/58
f 52/70/56 31/77/5 56/78/61
f 57/76/60 60/79/62 61/80/63
f 58/74/58 61/80/63 62/81/64
f 56/78/61 31/82/5 60/79/62
f 59/75/59 62/81/64 63/83/65
f 62/81/64 1/9/9 2/1/1
f 60/79/62 31/84/5 64/4/4
f 63/83/65 2/1/1 65/7/7
f 60/79/62 1/9/9 61/80/63
f 2/1/1 1/9/9 4/2/2
f 65/7/7 2/1/1 5/3/3
f 64/4/4 3/6/6 4/2/2
f 4/2/2 8/14/13 9/10/10
f 6/8/8 5/3/3 9/10/10
f 3/6/6 7/12/11 8/14/13
f 9/10/10 13/18/17 14/15/14
f 8/14/13 7/12/11 11/16/15
f 8/14/13 12/17/16 13/18/17
f 11/16/15 15/23/20 16/20/18
f 12/17/16 16/20/18 17/21/19
f 13/18/17 17/21/19 18/24/21
f 17/21/19 16/20/18 20/25/22
f 17/21/19 21/26/23 22/29/25
f 15/23/20 19/28/24 20/25/22
f 22/29/25 21/26/23 25/32/27
f 20/25/22 19/28/24 23/31/26
f 21/26/23 20/25/22 24/34/29
f 25/32/27 29/38/33 30/35/30
f 24/34/29 23/31/26 27/36/31
f 25/32/27 24/34/29 28/37/32
f 28/37/32 33/44/37 34/40/34
f 30/35/30 29/38/33 34/40/34
f 27/36/31 32/42/35 33/44/37
f 34/40/34 33/44/37 37/45/38
f 34/40/34 38/46/39 39/49/41
f 32/42/35 36/48/40 37/45/38
f 39/49/41 38/46/39 42/50/42
f 36/48/40 40/54/45 41/52/44
f 38/46/39 37/45/38 41/52/44
f 42/50/42 46/57/48 47/55/46
f 40/54/45 44/59/49 45/56/47
f 42/50/42 41/52/44 45/56/47
f 46/57/48 45/56/47 49/60/50
f 46/57/48 50/61/51 51/64/53
f 44/59/49 48/63/52 49/60/50
f 50/65/51 49/73/50 53/66/54
f 51/71/53 50/65/51 54/67/55
f 48/68/52 52/70/56 53/66/54
f 55/72/57 54/67/55 58/74/58
f 52/70/56 56/78/61 57/76/60
f 54/67/55 53/66/54 57/76/60
f 57/76/60 56/78/61 60/79/62
f 58/74/58 57/76/60 61/80/63
f 59/75/59 58/74/58 62/81/64
f 62/81/64 61/80/63 1/9/9
f 63/83/65 62/81/64 2/1/1
f 60/79/62 64/4/4 1/9/9
