# Blender v2.93.0 OBJ File: 'Schiff.blend'
# www.blender.org
mtllib ParameterUI_HealthArmorShield.mtl
o Plane.003_Plane.004
v -0.250000 0.000000 0.000000
v -0.250000 0.050000 0.000000
v 0.225000 0.000000 0.000000
v -0.250000 0.000000 -5.000000
v -0.250000 0.050000 -5.000000
v 0.225000 0.000000 -5.000000
v 0.225000 0.050000 -5.000000
v 0.225000 0.050000 0.000000
vt 1.000000 0.500000
vt 1.000000 0.500000
vt 1.000000 0.500000
vt 1.000000 0.500000
vt 1.000000 0.500000
vt 1.000000 0.500000
vt 1.000000 0.500000
vt 1.000000 0.500000
vn -1.0000 0.0000 0.0000
vn 0.0000 0.0000 1.0000
vn 0.0000 -1.0000 0.0000
vn 0.0000 0.0000 -1.0000
vn 1.0000 0.0000 0.0000
vn 0.0000 1.0000 0.0000
usemtl Armor
s off
f 2/1/1 4/2/1 1/3/1
f 3/4/2 2/1/2 1/3/2
f 1/3/3 6/5/3 3/4/3
f 5/6/4 6/5/4 4/2/4
f 3/4/5 7/7/5 8/8/5
f 8/8/6 5/6/6 2/1/6
f 2/1/1 5/6/1 4/2/1
f 3/4/2 8/8/2 2/1/2
f 1/3/3 4/2/3 6/5/3
f 5/6/4 7/7/4 6/5/4
f 3/4/5 6/5/5 7/7/5
f 8/8/6 7/7/6 5/6/6
