# Blender v2.93.0 OBJ File: 'Schiff.blend'
# www.blender.org
mtllib Test-Ship.mtl
o Cube_Cube.001
v 1.606326 -1.000000 1.000000
v 1.606326 1.000000 1.000000
v 1.606326 -1.000000 -1.000000
v 1.606326 1.000000 -1.000000
v 1.428025 1.000000 16.439632
v 1.428025 -1.000000 16.439632
v 1.606326 -1.000000 8.719816
v 1.606326 1.000000 8.719816
v 1.428025 -1.000000 12.579724
v 1.428025 1.000000 12.579724
v 2.383021 1.000000 12.579724
v 2.383021 1.000000 8.719816
v 2.383021 -1.000000 8.719816
v 2.383021 -1.000000 12.579724
v 5.451305 1.000000 12.579724
v 5.451305 1.000000 8.719816
v 5.451305 -1.000000 8.719816
v 5.451305 -1.000000 12.579724
v 2.383021 1.000000 4.828640
v 2.383021 -1.000000 4.828640
v 5.451305 1.000000 4.828640
v 5.451305 -1.000000 4.828640
v 2.383021 1.000000 14.999565
v 2.383021 -1.000000 14.999565
v 5.451305 1.000000 14.999565
v 5.451305 -1.000000 14.999565
v 3.917163 -1.593447 12.579724
v 3.917163 1.593447 12.579724
v 3.917163 1.593447 8.719816
v 3.917163 -1.593447 8.719816
v 3.917163 1.593447 4.828640
v 3.917163 -1.593447 4.828640
v 3.917163 -1.593447 14.999565
v 3.917163 1.593447 14.999565
v 1.606326 0.000000 -1.785639
v 1.606326 0.000000 1.000000
v 1.428025 0.000000 16.439632
v 1.606326 0.000000 8.719816
v 1.428025 0.000000 12.579724
v 2.160772 0.000000 8.719816
v 2.160772 0.000000 12.579724
v 5.673554 0.000000 8.719816
v 5.673554 0.000000 12.579724
v 2.160772 0.000000 4.828640
v 5.673554 0.000000 4.828640
v 2.160772 0.000000 14.999565
v 5.673554 0.000000 14.999565
v 3.917163 0.000000 14.999565
v 3.917163 0.000000 4.828640
v -1.606326 -1.000000 1.000000
v -1.606326 1.000000 1.000000
v -1.606326 -1.000000 -1.000000
v -1.606326 1.000000 -1.000000
v -1.428025 1.000000 16.439632
v -1.428025 -1.000000 16.439632
v 0.000000 -1.000000 -1.000000
v 0.000000 1.000000 -1.000000
v 0.000000 -1.000000 1.000000
v 0.000000 1.000000 1.000000
v 0.000000 -1.000000 16.439632
v 0.000000 1.000000 16.439632
v -1.606326 -1.000000 8.719816
v -1.606326 1.000000 8.719816
v 0.000000 1.000000 8.719816
v 0.000000 -1.000000 8.719816
v -1.428025 -1.000000 12.579724
v 0.000000 1.000000 12.579724
v 0.000000 -1.000000 12.579724
v -1.428025 1.000000 12.579724
v -2.383021 1.000000 12.579724
v -2.383021 1.000000 8.719816
v -2.383021 -1.000000 8.719816
v -2.383021 -1.000000 12.579724
v -5.451305 1.000000 12.579724
v -5.451305 1.000000 8.719816
v -5.451305 -1.000000 8.719816
v -5.451305 -1.000000 12.579724
v -2.383021 1.000000 4.828640
v -2.383021 -1.000000 4.828640
v -5.451305 1.000000 4.828640
v -5.451305 -1.000000 4.828640
v -2.383021 1.000000 14.999565
v -2.383021 -1.000000 14.999565
v -5.451305 1.000000 14.999565
v -5.451305 -1.000000 14.999565
v -3.917163 -1.593447 12.579724
v -3.917163 1.593447 12.579724
v -3.917163 1.593447 8.719816
v -3.917163 -1.593447 8.719816
v -3.917163 1.593447 4.828640
v -3.917163 -1.593447 4.828640
v -3.917163 -1.593447 14.999565
v -3.917163 1.593447 14.999565
v -1.606326 0.000000 -1.785639
v -1.606326 0.000000 1.000000
v -1.428025 0.000000 16.439632
v 0.000000 0.000000 16.439632
v 0.000000 0.000000 -1.785639
v -1.606326 0.000000 8.719816
v -1.428025 0.000000 12.579724
v -2.160772 0.000000 8.719816
v -2.160772 0.000000 12.579724
v -5.673554 0.000000 8.719816
v -5.673554 0.000000 12.579724
v -2.160772 0.000000 4.828640
v -5.673554 0.000000 4.828640
v -2.160772 0.000000 14.999565
v -5.673554 0.000000 14.999565
v -3.917163 0.000000 14.999565
v -3.917163 0.000000 4.828640
vt 0.500000 0.375000
vt 0.625000 0.375000
vt 0.625000 0.500000
vt 0.500000 0.500000
vt 0.625000 0.750000
vt 0.500000 0.750000
vt 0.250000 0.500000
vt 0.375000 0.500000
vt 0.375000 0.750000
vt 0.250000 0.750000
vt 0.250000 0.750000
vt 0.375000 0.750000
vt 0.375000 0.750000
vt 0.250000 0.750000
vt 0.500000 0.750000
vt 0.625000 0.750000
vt 0.625000 0.750000
vt 0.500000 0.750000
vt 0.750000 0.750000
vt 0.750000 0.750000
vt 0.625000 0.875000
vt 0.500000 0.875000
vt 0.750000 0.500000
vt 0.750000 0.750000
vt 0.750000 0.750000
vt 0.625000 0.750000
vt 0.500000 0.750000
vt 0.375000 0.750000
vt 0.250000 0.750000
vt 0.375000 0.750000
vt 0.375000 0.750000
vt 0.500000 0.750000
vt 0.375000 0.750000
vt 0.500000 0.750000
vt 0.625000 0.750000
vt 0.500000 0.750000
vt 0.625000 0.750000
vt 0.500000 0.750000
vt 0.625000 0.750000
vt 0.625000 0.750000
vt 0.500000 0.750000
vt 0.625000 0.750000
vt 0.625000 0.750000
vt 0.625000 0.750000
vt 0.375000 0.750000
vt 0.375000 0.750000
vt 0.375000 0.750000
vt 0.375000 0.750000
vt 0.625000 0.750000
vt 0.500000 0.750000
vt 0.500000 0.750000
vt 0.625000 0.750000
vt 0.500000 0.750000
vt 0.375000 0.750000
vt 0.375000 0.750000
vt 0.375000 0.750000
vt 0.500000 0.750000
vt 0.375000 0.750000
vt 0.375000 0.750000
vt 0.500000 0.750000
vt 0.625000 0.750000
vt 0.625000 0.750000
vt 0.625000 0.750000
vt 0.375000 0.875000
vt 0.375000 0.375000
vt 0.500000 0.500000
vt 0.625000 0.500000
vt 0.500000 0.750000
vt 0.625000 0.750000
vt 0.375000 0.750000
vt 0.375000 0.500000
vt 0.375000 0.750000
vt 0.375000 0.750000
vt 0.500000 0.750000
vt 0.500000 0.750000
vt 0.625000 0.750000
vt 0.625000 0.750000
vt 0.625000 0.750000
vt 0.500000 0.750000
vt 0.375000 0.750000
vt 0.375000 0.750000
vt 0.375000 0.750000
vt 0.500000 0.750000
vt 0.500000 0.750000
vt 0.375000 0.750000
vt 0.500000 0.750000
vt 0.625000 0.750000
vt 0.625000 0.750000
vt 0.500000 0.750000
vt 0.500000 0.750000
vt 0.625000 0.750000
vt 0.625000 0.750000
vt 0.625000 0.750000
vt 0.625000 0.750000
vt 0.625000 0.750000
vt 0.375000 0.750000
vt 0.375000 0.750000
vt 0.375000 0.750000
vt 0.375000 0.750000
vt 0.625000 0.750000
vt 0.500000 0.750000
vt 0.500000 0.750000
vt 0.500000 0.750000
vt 0.625000 0.750000
vt 0.375000 0.750000
vt 0.375000 0.750000
vt 0.375000 0.750000
vt 0.500000 0.750000
vt 0.500000 0.750000
vt 0.375000 0.750000
vt 0.375000 0.750000
vt 0.625000 0.750000
vt 0.625000 0.750000
vt 0.625000 0.750000
vn 0.0000 0.6178 -0.7863
vn 1.0000 0.0000 0.0000
vn 0.0000 -1.0000 0.0000
vn 0.0000 1.0000 0.0000
vn 0.0000 0.0000 1.0000
vn -0.9762 -0.2170 0.0000
vn 0.0000 0.0000 -1.0000
vn 0.9762 0.2170 0.0000
vn 0.3608 0.9327 0.0000
vn 0.3608 -0.9327 0.0000
vn -0.9762 0.2170 0.0000
vn -0.3608 -0.9327 0.0000
vn 0.9762 -0.2170 0.0000
vn -0.3608 0.9327 0.0000
vn 0.0000 -0.6178 -0.7863
vn -1.0000 0.0000 0.0000
usemtl None
s off
f 98/1/1 57/2/1 4/3/1 35/4/1
f 35/4/2 4/3/2 2/5/2 36/6/2
f 56/7/3 3/8/3 1/9/3 58/10/3
f 68/11/3 9/12/3 6/13/3 60/14/3
f 39/15/2 10/16/2 5/17/2 37/18/2
f 10/16/4 67/19/4 61/20/4 5/17/4
f 37/18/5 5/17/5 61/21/5 97/22/5
f 4/3/4 57/23/4 59/24/4 2/5/4
f 2/5/4 59/24/4 64/25/4 8/26/4
f 36/6/2 2/5/2 8/26/2 38/27/2
f 58/10/3 1/9/3 7/28/3 65/29/3
f 8/26/4 64/25/4 67/19/4 10/16/4
f 9/12/3 7/28/3 13/30/3 14/31/3
f 65/29/3 7/28/3 9/12/3 68/11/3
f 41/32/6 14/31/6 24/33/6 46/34/6
f 38/27/7 8/26/7 12/35/7 40/36/7
f 8/26/4 10/16/4 11/37/4 12/35/4
f 39/15/5 9/12/5 14/31/5 41/32/5
f 42/38/8 16/39/8 15/40/8 43/41/8
f 29/42/9 16/39/9 21/43/9 31/44/9
f 27/45/10 30/46/10 17/47/10 18/48/10
f 29/42/9 28/49/9 15/40/9 16/39/9
f 49/50/7 31/44/7 21/43/7 45/51/7
f 40/36/11 12/35/11 19/52/11 44/53/11
f 30/46/12 13/30/12 20/54/12 32/55/12
f 42/38/13 17/47/13 22/56/13 45/51/13
f 48/57/5 33/58/5 26/59/5 47/60/5
f 27/45/10 18/48/10 26/59/10 33/58/10
f 28/49/14 11/37/14 23/61/14 34/62/14
f 43/41/8 15/40/8 25/63/8 47/60/8
f 15/40/9 28/49/9 34/62/9 25/63/9
f 14/31/12 27/45/12 33/58/12 24/33/12
f 46/34/5 24/33/5 33/58/5 48/57/5
f 17/47/10 30/46/10 32/55/10 22/56/10
f 44/53/7 19/52/7 31/44/7 49/50/7
f 12/35/14 11/37/14 28/49/14 29/42/14
f 14/31/12 13/30/12 30/46/12 27/45/12
f 12/35/14 29/42/14 31/44/14 19/52/14
f 20/54/7 44/53/7 49/50/7 32/55/7
f 23/61/5 46/34/5 48/57/5 34/62/5
f 18/48/13 43/41/13 47/60/13 26/59/13
f 34/62/5 48/57/5 47/60/5 25/63/5
f 16/39/8 42/38/8 45/51/8 21/43/8
f 13/30/6 40/36/6 44/53/6 20/54/6
f 32/55/7 49/50/7 45/51/7 22/56/7
f 17/47/13 42/38/13 43/41/13 18/48/13
f 10/16/5 39/15/5 41/32/5 11/37/5
f 7/28/7 38/27/7 40/36/7 13/30/7
f 11/37/11 41/32/11 46/34/11 23/61/11
f 1/9/2 36/6/2 38/27/2 7/28/2
f 6/13/5 37/18/5 97/22/5 60/64/5
f 9/12/2 39/15/2 37/18/2 6/13/2
f 3/8/2 35/4/2 36/6/2 1/9/2
f 56/65/15 98/1/15 35/4/15 3/8/15
f 98/1/1 94/66/1 53/67/1 57/2/1
f 94/66/16 95/68/16 51/69/16 53/67/16
f 56/7/3 58/10/3 50/70/3 52/71/3
f 68/11/3 60/14/3 55/72/3 66/73/3
f 100/74/16 96/75/16 54/76/16 69/77/16
f 69/77/4 54/76/4 61/20/4 67/19/4
f 96/75/5 97/22/5 61/21/5 54/76/5
f 53/67/4 51/69/4 59/24/4 57/23/4
f 51/69/4 63/78/4 64/25/4 59/24/4
f 95/68/16 99/79/16 63/78/16 51/69/16
f 58/10/3 65/29/3 62/80/3 50/70/3
f 63/78/4 69/77/4 67/19/4 64/25/4
f 66/73/3 73/81/3 72/82/3 62/80/3
f 65/29/3 68/11/3 66/73/3 62/80/3
f 102/83/13 107/84/13 83/85/13 73/81/13
f 99/79/7 101/86/7 71/87/7 63/78/7
f 63/78/4 71/87/4 70/88/4 69/77/4
f 100/74/5 102/83/5 73/81/5 66/73/5
f 103/89/11 104/90/11 74/91/11 75/92/11
f 88/93/14 90/94/14 80/95/14 75/92/14
f 86/96/12 77/97/12 76/98/12 89/99/12
f 88/93/14 75/92/14 74/91/14 87/100/14
f 110/101/7 106/102/7 80/95/7 90/94/7
f 101/86/8 105/103/8 78/104/8 71/87/8
f 89/99/10 91/105/10 79/106/10 72/82/10
f 103/89/6 106/102/6 81/107/6 76/98/6
f 109/108/5 108/109/5 85/110/5 92/111/5
f 86/96/12 92/111/12 85/110/12 77/97/12
f 87/100/9 93/112/9 82/113/9 70/88/9
f 104/90/11 108/109/11 84/114/11 74/91/11
f 74/91/14 84/114/14 93/112/14 87/100/14
f 73/81/10 83/85/10 92/111/10 86/96/10
f 107/84/5 109/108/5 92/111/5 83/85/5
f 76/98/12 81/107/12 91/105/12 89/99/12
f 105/103/7 110/101/7 90/94/7 78/104/7
f 71/87/9 88/93/9 87/100/9 70/88/9
f 73/81/10 86/96/10 89/99/10 72/82/10
f 71/87/9 78/104/9 90/94/9 88/93/9
f 79/106/7 91/105/7 110/101/7 105/103/7
f 82/113/5 93/112/5 109/108/5 107/84/5
f 77/97/6 85/110/6 108/109/6 104/90/6
f 93/112/5 84/114/5 108/109/5 109/108/5
f 75/92/11 80/95/11 106/102/11 103/89/11
f 72/82/13 79/106/13 105/103/13 101/86/13
f 91/105/7 81/107/7 106/102/7 110/101/7
f 76/98/6 77/97/6 104/90/6 103/89/6
f 69/77/5 70/88/5 102/83/5 100/74/5
f 62/80/7 72/82/7 101/86/7 99/79/7
f 70/88/8 82/113/8 107/84/8 102/83/8
f 50/70/16 62/80/16 99/79/16 95/68/16
f 55/72/5 60/64/5 97/22/5 96/75/5
f 66/73/16 55/72/16 96/75/16 100/74/16
f 52/71/16 50/70/16 95/68/16 94/66/16
f 56/65/15 52/71/15 94/66/15 98/1/15
