# Blender v2.93.0 OBJ File: ''
# www.blender.org
mtllib Grid.mtl
o Cube
v 20.000000 0.500000 -20.000000
v 20.000000 -0.500000 -20.000000
v 20.000000 0.500000 20.000000
v 20.000000 -0.500000 20.000000
v -20.000000 0.500000 -20.000000
v -20.000000 -0.500000 -20.000000
v -20.000000 0.500000 20.000000
v -20.000000 -0.500000 20.000000
v -20.000000 -0.500000 -19.000000
v 20.000000 0.500000 -19.000000
v -20.000000 0.500000 -19.000000
v 20.000000 -0.500000 -19.000000
v -20.000000 -0.500000 19.000000
v 20.000000 0.500000 19.000000
v -20.000000 0.500000 19.000000
v 20.000000 -0.500000 19.000000
v 19.000002 -0.500000 -20.000000
v 19.000002 0.500000 20.000000
v 19.000002 -0.500000 20.000000
v 19.000002 0.500000 -20.000000
v 19.000002 -0.500000 -19.000000
v 19.000002 0.500000 -19.000000
v 19.000002 -0.500000 19.000000
v 19.000002 0.500000 19.000000
v -18.999998 -0.500000 -20.000000
v -18.999998 0.500000 20.000000
v -18.999998 -0.500000 -19.000000
v -18.999998 -0.500000 19.000000
v -19.000000 -0.500000 20.000000
v -19.000000 0.500000 -20.000000
v -19.000000 0.500000 -19.000000
v -19.000000 0.500000 19.000000
vt 0.812500 0.742752
vt 0.875000 0.742752
vt 0.875000 0.750000
vt 0.812500 0.750000
vt 0.375000 0.937500
vt 0.625000 0.937500
vt 0.625000 1.000000
vt 0.375000 1.000000
vt 0.375000 0.125000
vt 0.625000 0.125000
vt 0.625000 0.250000
vt 0.375000 0.250000
vt 0.250000 0.742752
vt 0.375000 0.742752
vt 0.375000 0.750000
vt 0.250000 0.750000
vt 0.625000 0.742752
vt 0.625000 0.750000
vt 0.375000 0.375000
vt 0.625000 0.375000
vt 0.625000 0.500000
vt 0.375000 0.500000
vt 0.625000 0.625000
vt 0.375000 0.625000
vt 0.250000 0.500000
vt 0.250000 0.625000
vt 0.375000 0.007248
vt 0.625000 0.007248
vt 0.812500 0.500000
vt 0.875000 0.500000
vt 0.875000 0.625000
vt 0.812500 0.625000
vt 0.375000 0.000000
vt 0.625000 0.000000
vt 0.750000 0.625000
vt 0.750000 0.742752
vt 0.187500 0.625000
vt 0.750000 0.500000
vt 0.187500 0.500000
vt 0.375000 0.312500
vt 0.625000 0.312500
vt 0.187500 0.742752
vt 0.187500 0.750000
vt 0.625000 0.875000
vt 0.375000 0.875000
vt 0.750000 0.750000
vt 0.125000 0.742752
vt 0.125000 0.750000
vt 0.125000 0.500000
vt 0.125000 0.625000
vn 0.0000 1.0000 0.0000
vn 0.0000 0.0000 1.0000
vn -1.0000 0.0000 0.0000
vn 0.0000 -1.0000 0.0000
vn 1.0000 0.0000 0.0000
vn 0.0000 0.0000 -1.0000
usemtl Material
s off
f 32/1/1 15/2/1 7/3/1 26/4/1
f 29/5/2 26/6/2 7/7/2 8/8/2
f 9/9/3 11/10/3 5/11/3 6/12/3
f 23/13/4 16/14/4 4/15/4 19/16/4
f 16/14/5 14/17/5 3/18/5 4/15/5
f 17/19/6 20/20/6 1/21/6 2/22/6
f 2/22/5 1/21/5 10/23/5 12/24/5
f 17/25/4 2/22/4 12/24/4 21/26/4
f 13/27/3 15/28/3 11/10/3 9/9/3
f 30/29/1 5/30/1 11/31/1 31/32/1
f 8/33/3 7/34/3 15/28/3 13/27/3
f 12/24/5 10/23/5 14/17/5 16/14/5
f 21/26/4 12/24/4 16/14/4 23/13/4
f 31/32/1 11/31/1 15/2/1 32/1/1
f 10/23/1 22/35/1 24/36/1 14/17/1
f 31/32/2 27/37/2 21/26/2 22/35/2
f 1/21/1 20/38/1 22/35/1 10/23/1
f 25/39/4 17/25/4 21/26/4 27/37/4
f 25/40/6 30/41/6 20/20/6 17/19/6
f 28/42/4 23/13/4 19/16/4 29/43/4
f 4/15/2 3/18/2 18/44/2 19/45/2
f 14/17/1 24/36/1 18/46/1 3/18/1
f 13/47/4 28/42/4 29/43/4 8/48/4
f 6/12/6 5/11/6 30/41/6 25/40/6
f 6/49/4 25/39/4 27/37/4 9/50/4
f 9/50/4 27/37/4 28/42/4 13/47/4
f 24/36/3 22/35/3 21/26/3 23/13/3
f 20/38/1 30/29/1 31/32/1 22/35/1
f 19/45/2 18/44/2 26/6/2 29/5/2
f 24/36/1 32/1/1 26/4/1 18/46/1
f 28/42/5 27/37/5 31/32/5 32/1/5
f 32/1/6 24/36/6 23/13/6 28/42/6
