# Blender 3.6.0
# www.blender.org
mtllib Grid.mtl
o Grid
v -20.000000 0.100000 -20.000000
v -20.000000 0.100000 20.000000
v 20.000000 0.100000 20.000000
v 20.000000 0.100000 -20.000000
v -20.000000 0.000000 20.000000
v -20.000000 0.000000 -20.000000
v 20.000000 0.000000 -20.000000
v 20.000000 0.000000 20.000000
v -20.141420 0.100000 -20.141420
v -20.141420 0.100000 20.141420
v 20.141420 0.100000 20.141420
v 20.141420 0.100000 -20.141420
v -20.141420 0.000000 20.141420
v -20.141420 0.000000 -20.141420
v 20.141420 0.000000 -20.141420
v 20.141420 0.000000 20.141420
vn -1.0000 -0.0000 -0.0000
vn 1.0000 -0.0000 -0.0000
vn -0.0000 -0.0000 1.0000
vn -0.0000 -0.0000 -1.0000
vn -0.0000 -1.0000 -0.0000
vn -0.0000 1.0000 -0.0000
vt 0.000000 0.000000
s 0
f 5/1/1 2/1/1 1/1/1 6/1/1
f 7/1/2 4/1/2 3/1/2 8/1/2
f 8/1/3 3/1/3 2/1/3 5/1/3
f 6/1/4 1/1/4 4/1/4 7/1/4
f 13/1/2 14/1/2 9/1/2 10/1/2
f 15/1/1 16/1/1 11/1/1 12/1/1
f 16/1/4 13/1/4 10/1/4 11/1/4
f 14/1/3 15/1/3 12/1/3 9/1/3
f 3/1/5 4/1/5 12/1/5 11/1/5
f 1/1/5 2/1/5 10/1/5 9/1/5
f 2/1/5 3/1/5 11/1/5 10/1/5
f 6/1/6 7/1/6 15/1/6 14/1/6
f 8/1/6 5/1/6 13/1/6 16/1/6
f 5/1/6 6/1/6 14/1/6 13/1/6
f 4/1/5 1/1/5 9/1/5 12/1/5
f 7/1/6 8/1/6 16/1/6 15/1/6
