# Blender 4.0.1
# www.blender.org
mtllib Antrieb.mtl
o LQ.002
v -0.334770 0.011258 -0.336620
v -0.343963 0.011258 -0.345812
v -0.348559 -0.000000 -0.350408
v -0.343963 -0.011258 -0.345812
v -0.334770 -0.011258 -0.336620
v -0.330174 -0.000000 -0.332024
v -0.334770 0.011258 0.312402
v -0.343963 0.011258 0.321595
v -0.348559 0.000000 0.326191
v -0.343963 -0.011258 0.321595
v -0.334770 -0.011258 0.312402
v -0.330174 0.000000 0.307806
v 0.366797 0.011258 0.312402
v 0.375989 0.011258 0.321595
v 0.380585 0.000000 0.326191
v 0.375989 -0.011258 0.321595
v 0.366797 -0.011258 0.312402
v 0.362201 0.000000 0.307806
v 0.365459 0.011258 0.051088
v 0.377327 0.011258 0.045782
v 0.383261 0.000000 0.043129
v 0.377327 -0.011258 0.045782
v 0.365459 -0.011258 0.051088
v 0.359525 0.000000 0.053741
v -0.066372 0.011258 -0.335144
v -0.061732 0.011258 -0.347288
v -0.059412 -0.000000 -0.353360
v -0.061732 -0.011258 -0.347288
v -0.066372 -0.011258 -0.335144
v -0.068693 -0.000000 -0.329072
vn 0.9258 0.3780 -0.0000
vn -0.0000 1.0000 -0.0000
vn -0.9258 0.3780 -0.0000
vn -0.9258 -0.3780 -0.0000
vn -0.0000 -1.0000 -0.0000
vn 0.9258 -0.3780 -0.0000
vn -0.0000 0.3780 -0.9258
vn -0.0000 0.3780 0.9258
vn -0.0000 -0.3780 0.9258
vn -0.0000 -0.3780 -0.9258
vn -0.9060 0.4231 0.0071
vn 0.9056 0.4241 0.0065
vn 0.9056 -0.4241 0.0065
vn -0.9060 -0.4231 0.0071
vn -0.5882 0.4705 0.6578
vn 0.5886 0.4705 -0.6574
vn 0.5886 -0.4705 -0.6574
vn -0.5882 -0.4705 0.6578
vn -0.0076 0.4275 0.9040
vn -0.0070 0.4287 -0.9034
vn -0.0070 -0.4287 -0.9034
vn -0.0076 -0.4275 0.9040
vt 0.000000 1.000000
vt 0.200000 1.000000
vt 0.200000 0.833333
vt 0.000000 0.833333
vt 0.000000 0.166667
vt 0.200000 0.166667
vt 0.200000 0.000000
vt 0.000000 0.000000
vt 0.000000 0.333333
vt 0.200000 0.333333
vt 0.000000 0.500000
vt 0.200000 0.500000
vt 0.000000 0.666667
vt 0.200000 0.666667
vt 0.400000 1.000000
vt 0.400000 0.833333
vt 0.400000 0.166667
vt 0.400000 0.000000
vt 0.400000 0.333333
vt 0.400000 0.500000
vt 0.400000 0.666667
vt 0.600000 1.000000
vt 0.600000 0.833333
vt 0.600000 0.166667
vt 0.600000 0.000000
vt 0.600000 0.333333
vt 0.600000 0.500000
vt 0.600000 0.666667
vt 0.800000 1.000000
vt 0.800000 0.833333
vt 0.800000 0.166667
vt 0.800000 0.000000
vt 0.800000 0.333333
vt 0.800000 0.500000
vt 0.800000 0.666667
vt 1.000000 1.000000
vt 1.000000 0.833333
vt 1.000000 0.166667
vt 1.000000 0.000000
vt 1.000000 0.333333
vt 1.000000 0.500000
vt 1.000000 0.666667
s 0
usemtl Material.005
f 1/1/1 7/2/1 12/3/1 6/4/1
f 2/5/2 8/6/2 7/7/2 1/8/2
f 3/9/3 9/10/3 8/6/3 2/5/3
f 4/11/4 10/12/4 9/10/4 3/9/4
f 5/13/5 11/14/5 10/12/5 4/11/5
f 6/4/6 12/3/6 11/14/6 5/13/6
f 7/2/7 13/15/7 18/16/7 12/3/7
f 8/6/2 14/17/2 13/18/2 7/7/2
f 9/10/8 15/19/8 14/17/8 8/6/8
f 10/12/9 16/20/9 15/19/9 9/10/9
f 11/14/5 17/21/5 16/20/5 10/12/5
f 12/3/10 18/16/10 17/21/10 11/14/10
f 13/15/11 19/22/11 24/23/11 18/16/11
f 14/17/2 20/24/2 19/25/2 13/18/2
f 15/19/12 21/26/12 20/24/12 14/17/12
f 16/20/13 22/27/13 21/26/13 15/19/13
f 17/21/5 23/28/5 22/27/5 16/20/5
f 18/16/14 24/23/14 23/28/14 17/21/14
f 19/22/15 25/29/15 30/30/15 24/23/15
f 20/24/2 26/31/2 25/32/2 19/25/2
f 21/26/16 27/33/16 26/31/16 20/24/16
f 22/27/17 28/34/17 27/33/17 21/26/17
f 23/28/5 29/35/5 28/34/5 22/27/5
f 24/23/18 30/30/18 29/35/18 23/28/18
f 25/29/19 1/36/19 6/37/19 30/30/19
f 26/31/2 2/38/2 1/39/2 25/32/2
f 27/33/20 3/40/20 2/38/20 26/31/20
f 28/34/21 4/41/21 3/40/21 27/33/21
f 29/35/5 5/42/5 4/41/5 28/34/5
f 30/30/22 6/37/22 5/42/22 29/35/22
o LQ.002
v -0.334770 0.011258 -0.336620
v -0.343963 0.011258 -0.345812
v -0.348559 -0.000000 -0.350408
v -0.343963 -0.011258 -0.345812
v -0.334770 -0.011258 -0.336620
v -0.330174 -0.000000 -0.332024
v -0.334770 0.011258 0.312402
v -0.343963 0.011258 0.321595
v -0.348559 0.000000 0.326191
v -0.343963 -0.011258 0.321595
v -0.334770 -0.011258 0.312402
v -0.330174 0.000000 0.307806
v 0.366797 0.011258 0.312402
v 0.375989 0.011258 0.321595
v 0.380585 0.000000 0.326191
v 0.375989 -0.011258 0.321595
v 0.366797 -0.011258 0.312402
v 0.362201 0.000000 0.307806
v 0.365459 0.011258 0.051088
v 0.377327 0.011258 0.045782
v 0.383261 0.000000 0.043129
v 0.377327 -0.011258 0.045782
v 0.365459 -0.011258 0.051088
v 0.359525 0.000000 0.053741
v -0.066372 0.011258 -0.335144
v -0.061732 0.011258 -0.347288
v -0.059412 -0.000000 -0.353360
v -0.061732 -0.011258 -0.347288
v -0.066372 -0.011258 -0.335144
v -0.068693 -0.000000 -0.329072
vn 0.9258 0.3780 -0.0000
vn -0.0000 1.0000 -0.0000
vn -0.9258 0.3780 -0.0000
vn -0.9258 -0.3780 -0.0000
vn -0.0000 -1.0000 -0.0000
vn 0.9258 -0.3780 -0.0000
vn -0.0000 0.3780 -0.9258
vn -0.0000 0.3780 0.9258
vn -0.0000 -0.3780 0.9258
vn -0.0000 -0.3780 -0.9258
vn -0.9060 0.4231 0.0071
vn 0.9056 0.4241 0.0065
vn 0.9056 -0.4241 0.0065
vn -0.9060 -0.4231 0.0071
vn -0.5882 0.4705 0.6578
vn 0.5886 0.4705 -0.6574
vn 0.5886 -0.4705 -0.6574
vn -0.5882 -0.4705 0.6578
vn -0.0076 0.4275 0.9040
vn -0.0070 0.4287 -0.9034
vn -0.0070 -0.4287 -0.9034
vn -0.0076 -0.4275 0.9040
vt 0.000000 1.000000
vt 0.200000 1.000000
vt 0.200000 0.833333
vt 0.000000 0.833333
vt 0.000000 0.166667
vt 0.200000 0.166667
vt 0.200000 0.000000
vt 0.000000 0.000000
vt 0.000000 0.333333
vt 0.200000 0.333333
vt 0.000000 0.500000
vt 0.200000 0.500000
vt 0.000000 0.666667
vt 0.200000 0.666667
vt 0.400000 1.000000
vt 0.400000 0.833333
vt 0.400000 0.166667
vt 0.400000 0.000000
vt 0.400000 0.333333
vt 0.400000 0.500000
vt 0.400000 0.666667
vt 0.600000 1.000000
vt 0.600000 0.833333
vt 0.600000 0.166667
vt 0.600000 0.000000
vt 0.600000 0.333333
vt 0.600000 0.500000
vt 0.600000 0.666667
vt 0.800000 1.000000
vt 0.800000 0.833333
vt 0.800000 0.166667
vt 0.800000 0.000000
vt 0.800000 0.333333
vt 0.800000 0.500000
vt 0.800000 0.666667
vt 1.000000 1.000000
vt 1.000000 0.833333
vt 1.000000 0.166667
vt 1.000000 0.000000
vt 1.000000 0.333333
vt 1.000000 0.500000
vt 1.000000 0.666667
s 0
usemtl Material.005
f 31/43/23 37/44/23 42/45/23 36/46/23
f 32/47/24 38/48/24 37/49/24 31/50/24
f 33/51/25 39/52/25 38/48/25 32/47/25
f 34/53/26 40/54/26 39/52/26 33/51/26
f 35/55/27 41/56/27 40/54/27 34/53/27
f 36/46/28 42/45/28 41/56/28 35/55/28
f 37/44/29 43/57/29 48/58/29 42/45/29
f 38/48/24 44/59/24 43/60/24 37/49/24
f 39/52/30 45/61/30 44/59/30 38/48/30
f 40/54/31 46/62/31 45/61/31 39/52/31
f 41/56/27 47/63/27 46/62/27 40/54/27
f 42/45/32 48/58/32 47/63/32 41/56/32
f 43/57/33 49/64/33 54/65/33 48/58/33
f 44/59/24 50/66/24 49/67/24 43/60/24
f 45/61/34 51/68/34 50/66/34 44/59/34
f 46/62/35 52/69/35 51/68/35 45/61/35
f 47/63/27 53/70/27 52/69/27 46/62/27
f 48/58/36 54/65/36 53/70/36 47/63/36
f 49/64/37 55/71/37 60/72/37 54/65/37
f 50/66/24 56/73/24 55/74/24 49/67/24
f 51/68/38 57/75/38 56/73/38 50/66/38
f 52/69/39 58/76/39 57/75/39 51/68/39
f 53/70/27 59/77/27 58/76/27 52/69/27
f 54/65/40 60/72/40 59/77/40 53/70/40
f 55/71/41 31/78/41 36/79/41 60/72/41
f 56/73/24 32/80/24 31/81/24 55/74/24
f 57/75/42 33/82/42 32/80/42 56/73/42
f 58/76/43 34/83/43 33/82/43 57/75/43
f 59/77/27 35/84/27 34/83/27 58/76/27
f 60/72/44 36/79/44 35/84/44 59/77/44
