# Blender 4.0.1
# www.blender.org
mtllib Rakete.mtl
o Cone.008
v 0.000000 -0.203870 -2.236377
v 0.078018 -0.188351 -2.236377
v 0.144158 -0.144158 -2.236377
v 0.188351 -0.078018 -2.236377
v 0.203870 0.000000 -2.236377
v 0.188351 0.078018 -2.236377
v 0.144158 0.144158 -2.236377
v 0.078018 0.188351 -2.236377
v 0.000000 0.203870 -2.236377
v -0.078018 0.188351 -2.236377
v -0.144158 0.144158 -2.236377
v -0.188351 0.078018 -2.236377
v -0.203870 0.000000 -2.236377
v -0.188351 -0.078018 -2.236377
v -0.144158 -0.144158 -2.236377
v -0.078018 -0.188351 -2.236377
v 0.000000 0.000000 -2.644116
v 0.000000 -0.203871 1.596704
v 0.078018 -0.188352 1.596704
v 0.144158 -0.144159 1.596704
v 0.188351 -0.078018 1.596704
v 0.203870 -0.000001 1.596704
v 0.188351 0.078017 1.596704
v 0.144158 0.144157 1.596704
v 0.078018 0.188350 1.596704
v 0.000000 0.203869 1.596704
v -0.078018 0.188350 1.596704
v -0.144158 0.144157 1.596704
v -0.188351 0.078017 1.596704
v -0.203870 -0.000001 1.596704
v -0.188351 -0.078018 1.596704
v -0.144158 -0.144159 1.596704
v -0.078018 -0.188352 1.596704
v -0.144158 0.144157 0.917803
v -0.078018 0.188350 0.917803
v -0.144158 -0.144158 0.917803
v -0.188351 -0.078018 0.917803
v 0.188351 -0.078018 0.917803
v 0.144158 -0.144158 0.917803
v 0.078018 0.188350 0.917803
v 0.144158 0.144157 0.917803
v -0.188351 0.078017 0.917803
v -0.078018 -0.188352 0.917803
v 0.203870 -0.000001 0.917803
v 0.078018 -0.188352 0.917803
v 0.000000 -0.203870 0.917803
v 0.000000 0.203869 0.917803
v -0.203870 -0.000001 0.917803
v 0.188351 0.078017 0.917803
v 0.511855 -0.032149 1.596704
v 0.554028 -0.000001 1.596704
v 0.511855 0.032147 1.596704
v -0.511855 0.032147 1.596704
v -0.554028 -0.000001 1.596704
v -0.511855 -0.032149 1.596704
v 0.511855 -0.032149 1.180029
v -0.511855 0.032147 1.180029
v 0.554028 -0.000001 1.180029
v -0.554028 -0.000001 1.180029
v 0.511855 0.032147 1.180029
v -0.511855 -0.032149 1.180029
v 0.000000 -0.158243 1.596704
v 0.060557 -0.146198 1.596704
v 0.111894 -0.111895 1.596704
v 0.146197 -0.060558 1.596704
v 0.158242 -0.000001 1.596704
v 0.146197 0.060556 1.596704
v 0.111894 0.111893 1.596704
v 0.060557 0.146196 1.596704
v 0.000000 0.158241 1.596704
v -0.060557 0.146196 1.596704
v -0.111894 0.111893 1.596704
v -0.146197 0.060556 1.596704
v -0.158242 -0.000001 1.596704
v -0.146197 -0.060558 1.596704
v -0.111894 -0.111895 1.596704
v -0.060557 -0.146198 1.596704
v 0.000000 -0.158243 1.166364
v 0.060557 -0.146198 1.166364
v 0.111894 -0.111895 1.166364
v 0.146197 -0.060558 1.166364
v 0.158242 -0.000001 1.166364
v 0.146197 0.060556 1.166364
v 0.111894 0.111893 1.166364
v 0.060557 0.146196 1.166364
v 0.000000 0.158241 1.166364
v -0.060557 0.146196 1.166364
v -0.111894 0.111893 1.166364
v -0.146197 0.060556 1.166364
v -0.158242 -0.000001 1.166364
v -0.146197 -0.060558 1.166364
v -0.111894 -0.111895 1.166364
v -0.060557 -0.146198 1.166364
vn -0.0000 -0.8944 -0.4472
vn -0.0000 -0.0000 -1.0000
vn 0.3423 -0.8263 -0.4472
vn 0.6325 -0.6325 -0.4472
vn 0.8263 -0.3423 -0.4472
vn 0.8944 -0.0000 -0.4472
vn 0.8263 0.3423 -0.4472
vn 0.6325 0.6325 -0.4472
vn 0.3423 0.8263 -0.4472
vn -0.0000 0.8944 -0.4472
vn -0.3423 0.8263 -0.4472
vn -0.6325 0.6325 -0.4472
vn -0.8263 0.3423 -0.4472
vn -0.8944 -0.0000 -0.4472
vn -0.8263 -0.3423 -0.4472
vn -0.6325 -0.6325 -0.4472
vn -0.3827 0.9239 -0.0000
vn -0.7071 0.7071 -0.0000
vn -0.3423 -0.8263 -0.4472
vn -0.0000 -0.0000 1.0000
vn -0.8965 -0.4430 -0.0000
vn -0.7071 -0.7071 -0.0000
vn -0.8315 -0.5556 -0.0000
vn 0.7071 -0.7071 -0.0000
vn 0.8965 -0.4430 -0.0000
vn 0.8315 -0.5556 -0.0000
vn 0.7071 0.7071 -0.0000
vn 0.3827 0.9239 -0.0000
vn -0.8965 0.4430 -0.0000
vn -0.8315 0.5556 -0.0000
vn -0.3827 -0.9239 -0.0000
vn -0.5967 0.3125 -0.7391
vn -0.0000 -1.0000 -0.0000
vn 0.3827 -0.9239 -0.0000
vn -0.0000 1.0000 -0.0000
vn 0.5967 -0.3125 -0.7391
vn -0.5967 -0.3125 -0.7391
vn 0.8965 0.4430 -0.0000
vn 0.8315 0.5556 -0.0000
vn 0.9239 0.3827 -0.0000
vn -1.0000 -0.0000 -0.0000
vn -0.9239 -0.3827 -0.0000
vn 1.0000 -0.0000 -0.0000
vn -0.9239 0.3827 -0.0000
vn 0.9239 -0.3827 -0.0000
vn 0.3428 -0.9394 -0.0000
vn 0.6062 -0.7953 -0.0000
vn 0.3858 -0.9226 -0.0000
vn -0.3428 0.9394 -0.0000
vn -0.6062 0.7953 -0.0000
vn -0.3858 0.9226 -0.0000
vn 0.6062 0.7953 -0.0000
vn 0.3428 0.9394 -0.0000
vn 0.3858 0.9226 -0.0000
vn -0.6062 -0.7953 -0.0000
vn -0.3428 -0.9394 -0.0000
vn -0.3858 -0.9226 -0.0000
vn 0.1404 -0.9901 -0.0000
vn -0.1404 0.9901 -0.0000
vn 0.1404 0.9901 -0.0000
vn 0.5967 0.3125 -0.7391
vn -0.1404 -0.9901 -0.0000
vt 0.554308 0.525518
vt 0.470323 0.609642
vt 0.538407 0.512199
vt 0.520432 0.501848
vt 0.500931 0.494779
vt 0.480499 0.728077
vt 0.500931 0.724505
vt 0.520432 0.717436
vt 0.538407 0.707084
vt 0.554308 0.693766
vt 0.567653 0.677886
vt 0.578034 0.659929
vt 0.585136 0.640440
vt 0.588741 0.620013
vt 0.588741 0.599271
vt 0.585136 0.578844
vt 0.578034 0.559355
vt 0.124698 0.822726
vt 0.145441 0.822726
vt 0.145441 0.999756
vt 0.124698 0.999756
vt 0.567653 0.541398
vt 0.374539 0.616878
vt 0.395281 0.616878
vt 0.392960 0.628547
vt 0.376860 0.628547
vt 0.207668 0.822726
vt 0.228410 0.822726
vt 0.228410 0.999756
vt 0.207668 0.999756
vt 0.311380 0.822726
vt 0.332122 0.822726
vt 0.332122 0.999756
vt 0.311380 0.999756
vt 0.062471 0.822726
vt 0.083214 0.822726
vt 0.083214 0.999756
vt 0.062471 0.999756
vt 0.166183 0.822726
vt 0.166183 0.999756
vt 0.249153 0.822726
vt 0.249153 0.999756
vt 0.527643 0.127269
vt 0.524215 0.147839
vt 0.409473 0.147866
vt 0.418838 0.137708
vt 0.269895 0.822726
vt 0.290637 0.822726
vt 0.290637 0.999756
vt 0.269895 0.999756
vt 0.103956 0.822726
vt 0.103956 0.999756
vt 0.340321 0.402698
vt 0.343763 0.382134
vt 0.458504 0.382166
vt 0.449141 0.392322
vt 0.527657 0.168409
vt 0.418835 0.158022
vt 0.355375 0.713219
vt 0.374539 0.721157
vt 0.356726 0.810710
vt 0.350649 0.798289
vt 0.041729 0.822726
vt 0.041729 0.999756
vt 0.041729 0.000244
vt 0.062471 0.000244
vt 0.290637 0.000244
vt 0.311380 0.000244
vt 0.186925 0.000244
vt 0.207668 0.000244
vt 0.186925 0.822726
vt 0.103956 0.000244
vt 0.124698 0.000244
vt 0.020987 0.000244
vt 0.020987 0.822726
vt 0.249153 0.000244
vt 0.269895 0.000244
vt 0.166183 0.000244
vt 0.083214 0.000244
vt 0.000244 0.000244
vt 0.000244 0.822726
vt 0.228410 0.000244
vt 0.145441 0.000244
vt 0.332122 0.000244
vt 0.535075 0.460370
vt 0.525114 0.470109
vt 0.332905 0.069729
vt 0.342849 0.059984
vt 0.449140 0.372007
vt 0.525131 0.294282
vt 0.535075 0.304027
vt 0.342855 0.235794
vt 0.332905 0.226050
vt 0.463999 0.529690
vt 0.402727 0.536476
vt 0.413094 0.527325
vt 0.403909 0.000378
vt 0.340333 0.361568
vt 0.464069 0.234675
vt 0.414444 0.624816
vt 0.419170 0.539747
vt 0.395281 0.721157
vt 0.367093 0.801560
vt 0.403954 0.295395
vt 0.502522 0.930775
vt 0.502522 0.946875
vt 0.390307 0.946875
vt 0.390307 0.930775
vt 0.376860 0.709488
vt 0.392960 0.709488
vt 0.407834 0.634709
vt 0.361985 0.703327
vt 0.429111 0.639483
vt 0.419219 0.646093
vt 0.340708 0.698552
vt 0.350601 0.691942
vt 0.437049 0.658646
vt 0.425380 0.660968
vt 0.332770 0.679389
vt 0.344440 0.677068
vt 0.437049 0.679389
vt 0.425380 0.677068
vt 0.332770 0.658646
vt 0.340708 0.639483
vt 0.350601 0.646093
vt 0.344440 0.660968
vt 0.429111 0.698552
vt 0.419219 0.691942
vt 0.355375 0.624816
vt 0.361985 0.634709
vt 0.414444 0.713219
vt 0.407834 0.703327
vt 0.523736 0.006405
vt 0.535121 0.017790
vt 0.541282 0.032664
vt 0.541282 0.048764
vt 0.535121 0.063639
vt 0.523736 0.075023
vt 0.508862 0.081185
vt 0.492762 0.081185
vt 0.477887 0.075023
vt 0.466503 0.063639
vt 0.460341 0.048764
vt 0.460341 0.032664
vt 0.466503 0.017790
vt 0.477887 0.006405
vt 0.492762 0.000244
vt 0.508862 0.000244
vt 0.502522 0.818075
vt 0.502522 0.834175
vt 0.390307 0.834175
vt 0.390307 0.818075
vt 0.502522 0.962975
vt 0.390307 0.962975
vt 0.502522 0.850275
vt 0.390307 0.850275
vt 0.502522 0.979075
vt 0.390307 0.979075
vt 0.502522 0.866375
vt 0.390307 0.866375
vt 0.502522 0.995175
vt 0.390307 0.995175
vt 0.502522 0.882475
vt 0.390307 0.882475
vt 0.502522 0.753674
vt 0.502522 0.769774
vt 0.390307 0.769774
vt 0.390307 0.753674
vt 0.502522 0.737574
vt 0.390307 0.737574
vt 0.502522 0.898575
vt 0.390307 0.898575
vt 0.502522 0.785874
vt 0.390307 0.785874
vt 0.502522 0.914675
vt 0.390307 0.914675
vt 0.502522 0.801974
vt 0.390307 0.801974
s 1
usemtl Rocket_mat
f 1/1/1 17/2/2 2/3/3
f 2/3/3 17/2/2 3/4/4
f 3/4/4 17/2/2 4/5/5
f 4/6/5 17/2/2 5/7/6
f 5/7/6 17/2/2 6/8/7
f 6/8/7 17/2/2 7/9/8
f 7/9/8 17/2/2 8/10/9
f 8/10/9 17/2/2 9/11/10
f 9/11/10 17/2/2 10/12/11
f 10/12/11 17/2/2 11/13/12
f 11/13/12 17/2/2 12/14/13
f 12/14/13 17/2/2 13/15/14
f 13/15/14 17/2/2 14/16/15
f 14/16/15 17/2/2 15/17/16
f 35/18/17 34/19/18 28/20/18 27/21/17
f 15/17/16 17/2/2 16/22/19
f 16/22/19 17/2/2 1/1/1
f 21/23/20 22/24/20 66/25/20 65/26/20
f 37/27/21 36/28/22 32/29/22 31/30/23
f 39/31/24 38/32/25 21/33/26 20/34/24
f 41/35/27 40/36/28 25/37/28 24/38/27
f 34/19/18 42/39/29 29/40/30 28/20/18
f 36/28/22 43/41/31 33/42/31 32/29/22
f 42/43/32 48/44/32 59/45/32 57/46/32
f 46/47/33 45/48/34 19/49/34 18/50/33
f 40/36/28 47/51/35 26/52/35 25/37/28
f 38/53/36 44/54/36 58/55/36 56/56/36
f 43/41/31 46/47/33 18/50/33 33/42/31
f 48/44/37 37/57/37 61/58/37 59/45/37
f 47/51/35 35/18/17 27/21/17 26/52/35
f 31/59/20 30/60/20 54/61/20 55/62/20
f 45/48/34 39/31/24 20/34/24 19/49/34
f 49/63/38 41/35/27 24/38/27 23/64/39
f 6/65/40 7/66/27 41/35/27 49/63/38
f 2/67/34 3/68/24 39/31/24 45/48/34
f 13/69/41 14/70/42 37/27/21 48/71/41
f 9/72/35 10/73/17 35/18/17 47/51/35
f 5/74/43 6/65/40 49/63/38 44/75/43
f 16/76/31 1/77/33 46/47/33 43/41/31
f 12/78/44 13/69/41 48/71/41 42/39/29
f 8/79/28 9/72/35 47/51/35 40/36/28
f 1/77/33 2/67/34 45/48/34 46/47/33
f 4/80/45 5/74/43 44/75/43 38/81/25
f 15/82/22 16/76/31 43/41/31 36/28/22
f 11/83/18 12/78/44 42/39/29 34/19/18
f 7/66/27 8/79/28 40/36/28 41/35/27
f 3/68/24 4/84/45 38/32/25 39/31/24
f 14/70/42 15/82/22 36/28/22 37/27/21
f 10/73/17 11/83/18 34/19/18 35/18/17
f 56/56/46 58/55/47 51/85/47 50/86/48
f 57/46/49 59/45/50 54/87/50 53/88/51
f 58/55/52 60/89/53 52/90/54 51/91/52
f 59/45/55 61/58/56 55/92/57 54/93/55
f 21/94/58 38/53/58 56/56/46 50/86/48
f 22/24/20 21/23/20 50/95/20 51/96/20
f 29/97/59 42/43/59 57/46/49 53/88/51
f 49/98/60 23/99/60 52/90/54 60/89/53
f 23/100/20 22/24/20 51/96/20 52/101/20
f 30/60/20 29/102/20 53/103/20 54/61/20
f 44/54/61 49/98/61 60/89/61 58/55/61
f 37/57/62 31/104/62 55/92/57 61/58/56
f 73/105/45 74/106/43 90/107/43 89/108/45
f 29/102/20 30/60/20 74/109/20 73/110/20
f 22/24/20 23/100/20 67/111/20 66/25/20
f 30/60/20 31/59/20 75/112/20 74/109/20
f 23/100/20 24/113/20 68/114/20 67/111/20
f 31/59/20 32/115/20 76/116/20 75/112/20
f 24/113/20 25/117/20 69/118/20 68/114/20
f 32/115/20 33/119/20 77/120/20 76/116/20
f 25/117/20 26/121/20 70/122/20 69/118/20
f 18/123/20 19/124/20 63/125/20 62/126/20
f 33/119/20 18/123/20 62/126/20 77/120/20
f 26/121/20 27/127/20 71/128/20 70/122/20
f 19/124/20 20/129/20 64/130/20 63/125/20
f 27/127/20 28/131/20 72/132/20 71/128/20
f 20/129/20 21/23/20 65/26/20 64/130/20
f 28/131/20 29/102/20 73/110/20 72/132/20
f 78/133/20 79/134/20 80/135/20 81/136/20 82/137/20 83/138/20 84/139/20 85/140/20 86/141/20 87/142/20 88/143/20 89/144/20 90/145/20 91/146/20 92/147/20 93/148/20
f 66/149/41 67/150/42 83/151/42 82/152/41
f 74/106/43 75/153/40 91/154/40 90/107/43
f 67/150/42 68/155/22 84/156/22 83/151/42
f 75/153/40 76/157/27 92/158/27 91/154/40
f 68/155/22 69/159/31 85/160/31 84/156/22
f 76/157/27 77/161/28 93/162/28 92/158/27
f 69/159/31 70/163/33 86/164/33 85/160/31
f 62/165/35 63/166/17 79/167/17 78/168/35
f 77/169/28 62/165/35 78/168/35 93/170/28
f 70/163/33 71/171/34 87/172/34 86/164/33
f 63/166/17 64/173/18 80/174/18 79/167/17
f 71/171/34 72/175/24 88/176/24 87/172/34
f 64/173/18 65/177/44 81/178/44 80/174/18
f 72/175/24 73/105/45 89/108/45 88/176/24
f 65/177/44 66/149/41 82/152/41 81/178/44
